<svg width="100" height="101" viewBox="0 0 100 101" fill="none" xmlns="http://www.w3.org/2000/svg">
<g clip-path="url(#clip0_1_3199)">
<rect x="7.8125" y="8.3125" width="84.375" height="84.375" rx="17.1875" fill="url(#paint0_linear_1_3199)"/>
<path d="M27.7522 46.1774H31.6877V47.371H26.2845V36.129H27.7522V46.1774ZM37.1013 47.5161C36.2733 47.5161 35.5206 47.328 34.8432 46.9516C34.1765 46.5753 33.6497 46.043 33.2626 45.3548C32.8862 44.6559 32.698 43.8495 32.698 42.9355C32.698 42.0323 32.8916 41.2366 33.2787 40.5484C33.6765 39.8495 34.2142 39.3172 34.8916 38.9516C35.569 38.5753 36.3271 38.3871 37.1658 38.3871C38.0045 38.3871 38.7626 38.5753 39.44 38.9516C40.1174 39.3172 40.6497 39.8441 41.0368 40.5323C41.4346 41.2204 41.6335 42.0215 41.6335 42.9355C41.6335 43.8495 41.4292 44.6559 41.0206 45.3548C40.6228 46.043 40.0798 46.5753 39.3916 46.9516C38.7034 47.328 37.94 47.5161 37.1013 47.5161ZM37.1013 46.2258C37.6282 46.2258 38.1228 46.1022 38.5851 45.8548C39.0475 45.6075 39.4185 45.2366 39.698 44.7419C39.9884 44.2473 40.1335 43.6452 40.1335 42.9355C40.1335 42.2258 39.9937 41.6237 39.7142 41.129C39.4346 40.6344 39.069 40.2688 38.6174 40.0323C38.1658 39.785 37.6765 39.6613 37.1497 39.6613C36.612 39.6613 36.1174 39.785 35.6658 40.0323C35.2249 40.2688 34.8701 40.6344 34.6013 41.129C34.3325 41.6237 34.198 42.2258 34.198 42.9355C34.198 43.6559 34.3271 44.2634 34.5851 44.7581C34.854 45.2527 35.2088 45.6237 35.6497 45.871C36.0905 46.1075 36.5744 46.2258 37.1013 46.2258ZM45.0311 39.9677C45.2891 39.4624 45.6547 39.0699 46.1279 38.7903C46.6117 38.5108 47.1977 38.371 47.8859 38.371V39.8871H47.4988C45.8537 39.8871 45.0311 40.7796 45.0311 42.5645V47.371H43.5633V38.5323H45.0311V39.9677ZM57.6447 42.6129C57.6447 42.8925 57.6286 43.1882 57.5964 43.5H50.5318C50.5856 44.371 50.8813 45.0538 51.4189 45.5484C51.9673 46.0323 52.6286 46.2742 53.4028 46.2742C54.0372 46.2742 54.5641 46.129 54.9835 45.8387C55.4136 45.5376 55.7146 45.1398 55.8867 44.6452H57.4673C57.2308 45.4946 56.7576 46.1882 56.048 46.7258C55.3383 47.2527 54.4566 47.5161 53.4028 47.5161C52.5641 47.5161 51.8114 47.328 51.1447 46.9516C50.4888 46.5753 49.9727 46.043 49.5964 45.3548C49.22 44.6559 49.0318 43.8495 49.0318 42.9355C49.0318 42.0215 49.2146 41.2204 49.5802 40.5323C49.9458 39.8441 50.4566 39.3172 51.1125 38.9516C51.7792 38.5753 52.5426 38.3871 53.4028 38.3871C54.2415 38.3871 54.9835 38.5699 55.6286 38.9355C56.2738 39.3011 56.7684 39.8065 57.1125 40.4516C57.4673 41.086 57.6447 41.8065 57.6447 42.6129ZM56.1286 42.3065C56.1286 41.7473 56.005 41.2688 55.7576 40.871C55.5103 40.4624 55.1716 40.1559 54.7415 39.9516C54.3222 39.7366 53.8544 39.629 53.3383 39.629C52.5964 39.629 51.9619 39.8656 51.4351 40.3387C50.9189 40.8118 50.6232 41.4677 50.548 42.3065H56.1286ZM70.2111 38.371C70.8993 38.371 71.5122 38.5161 72.0499 38.8065C72.5875 39.086 73.0122 39.5108 73.3241 40.0806C73.6359 40.6505 73.7918 41.3441 73.7918 42.1613V47.371H72.3402V42.371C72.3402 41.4893 72.1197 40.8172 71.6789 40.3548C71.2488 39.8817 70.6628 39.6452 69.9208 39.6452C69.1574 39.6452 68.5499 39.8925 68.0982 40.3871C67.6466 40.871 67.4208 41.5753 67.4208 42.5V47.371H65.9692V42.371C65.9692 41.4893 65.7488 40.8172 65.3079 40.3548C64.8778 39.8817 64.2918 39.6452 63.5499 39.6452C62.7864 39.6452 62.1789 39.8925 61.7273 40.3871C61.2757 40.871 61.0499 41.5753 61.0499 42.5V47.371H59.5821V38.5323H61.0499V39.8065C61.3402 39.3441 61.7273 38.9893 62.2111 38.7419C62.7058 38.4946 63.2488 38.371 63.8402 38.371C64.5821 38.371 65.238 38.5376 65.8079 38.871C66.3778 39.2043 66.8025 39.6936 67.0821 40.3387C67.3294 39.7151 67.738 39.2312 68.3079 38.8871C68.8778 38.543 69.5122 38.371 70.2111 38.371Z" fill="white"/>
<path d="M36.2954 57.6057C36.1394 57.6057 36.0074 57.5517 35.8994 57.4437C35.7914 57.3357 35.7374 57.2037 35.7374 57.0477C35.7374 56.8917 35.7914 56.7597 35.8994 56.6517C36.0074 56.5437 36.1394 56.4897 36.2954 56.4897C36.4454 56.4897 36.5714 56.5437 36.6734 56.6517C36.7814 56.7597 36.8354 56.8917 36.8354 57.0477C36.8354 57.2037 36.7814 57.3357 36.6734 57.4437C36.5714 57.5517 36.4454 57.6057 36.2954 57.6057ZM36.6914 58.4067V63.3387H35.8724V58.4067H36.6914ZM38.9062 59.3157C39.0682 59.0337 39.3082 58.7997 39.6262 58.6137C39.9502 58.4217 40.3252 58.3257 40.7512 58.3257C41.1892 58.3257 41.5852 58.4307 41.9392 58.6407C42.2992 58.8507 42.5812 59.1477 42.7852 59.5317C42.9892 59.9097 43.0912 60.3507 43.0912 60.8547C43.0912 61.3527 42.9892 61.7967 42.7852 62.1867C42.5812 62.5767 42.2992 62.8797 41.9392 63.0957C41.5852 63.3117 41.1892 63.4197 40.7512 63.4197C40.3312 63.4197 39.9592 63.3267 39.6352 63.1407C39.3172 62.9487 39.0742 62.7117 38.9062 62.4297V65.6787H38.0872V58.4067H38.9062V59.3157ZM42.2542 60.8547C42.2542 60.4827 42.1792 60.1587 42.0292 59.8827C41.8792 59.6067 41.6752 59.3967 41.4172 59.2527C41.1652 59.1087 40.8862 59.0367 40.5802 59.0367C40.2802 59.0367 40.0012 59.1117 39.7432 59.2617C39.4912 59.4057 39.2872 59.6187 39.1312 59.9007C38.9812 60.1767 38.9062 60.4977 38.9062 60.8637C38.9062 61.2357 38.9812 61.5627 39.1312 61.8447C39.2872 62.1207 39.4912 62.3337 39.7432 62.4837C40.0012 62.6277 40.2802 62.6997 40.5802 62.6997C40.8862 62.6997 41.1652 62.6277 41.4172 62.4837C41.6752 62.3337 41.8792 62.1207 42.0292 61.8447C42.1792 61.5627 42.2542 61.2327 42.2542 60.8547ZM45.9153 63.4197C45.5373 63.4197 45.1983 63.3567 44.8983 63.2307C44.5983 63.0987 44.3613 62.9187 44.1873 62.6907C44.0133 62.4567 43.9173 62.1897 43.8993 61.8897H44.7453C44.7693 62.1357 44.8833 62.3367 45.0873 62.4927C45.2973 62.6487 45.5703 62.7267 45.9063 62.7267C46.2183 62.7267 46.4643 62.6577 46.6443 62.5197C46.8243 62.3817 46.9143 62.2077 46.9143 61.9977C46.9143 61.7817 46.8183 61.6227 46.6263 61.5207C46.4343 61.4127 46.1373 61.3077 45.7353 61.2057C45.3693 61.1097 45.0693 61.0137 44.8353 60.9177C44.6073 60.8157 44.4093 60.6687 44.2413 60.4767C44.0793 60.2787 43.9983 60.0207 43.9983 59.7027C43.9983 59.4507 44.0733 59.2197 44.2233 59.0097C44.3733 58.7997 44.5863 58.6347 44.8623 58.5147C45.1383 58.3887 45.4533 58.3257 45.8073 58.3257C46.3533 58.3257 46.7943 58.4637 47.1303 58.7397C47.4663 59.0157 47.6463 59.3937 47.6703 59.8737H46.8513C46.8333 59.6157 46.7283 59.4087 46.5363 59.2527C46.3503 59.0967 46.0983 59.0187 45.7803 59.0187C45.4863 59.0187 45.2523 59.0817 45.0783 59.2077C44.9043 59.3337 44.8173 59.4987 44.8173 59.7027C44.8173 59.8647 44.8683 59.9997 44.9703 60.1077C45.0783 60.2097 45.2103 60.2937 45.3663 60.3597C45.5283 60.4197 45.7503 60.4887 46.0323 60.5667C46.3863 60.6627 46.6743 60.7587 46.8963 60.8547C47.1183 60.9447 47.3073 61.0827 47.4633 61.2687C47.6253 61.4547 47.7093 61.6977 47.7153 61.9977C47.7153 62.2677 47.6403 62.5107 47.4903 62.7267C47.3403 62.9427 47.1273 63.1137 46.8513 63.2397C46.5813 63.3597 46.2693 63.4197 45.9153 63.4197ZM53.2454 58.4067V63.3387H52.4264V62.6097C52.2704 62.8617 52.0514 63.0597 51.7694 63.2037C51.4934 63.3417 51.1874 63.4107 50.8514 63.4107C50.4674 63.4107 50.1224 63.3327 49.8164 63.1767C49.5104 63.0147 49.2674 62.7747 49.0874 62.4567C48.9134 62.1387 48.8264 61.7517 48.8264 61.2957V58.4067H49.6364V61.1877C49.6364 61.6737 49.7594 62.0487 50.0054 62.3127C50.2514 62.5707 50.5874 62.6997 51.0134 62.6997C51.4514 62.6997 51.7964 62.5647 52.0484 62.2947C52.3004 62.0247 52.4264 61.6317 52.4264 61.1157V58.4067H53.2454ZM60.5593 58.3167C60.9433 58.3167 61.2853 58.3977 61.5853 58.5597C61.8853 58.7157 62.1223 58.9527 62.2963 59.2707C62.4703 59.5887 62.5573 59.9757 62.5573 60.4317V63.3387H61.7473V60.5487C61.7473 60.0567 61.6243 59.6817 61.3783 59.4237C61.1383 59.1597 60.8113 59.0277 60.3973 59.0277C59.9713 59.0277 59.6323 59.1657 59.3803 59.4417C59.1283 59.7117 59.0023 60.1047 59.0023 60.6207V63.3387H58.1923V60.5487C58.1923 60.0567 58.0693 59.6817 57.8233 59.4237C57.5833 59.1597 57.2563 59.0277 56.8423 59.0277C56.4163 59.0277 56.0773 59.1657 55.8253 59.4417C55.5733 59.7117 55.4473 60.1047 55.4473 60.6207V63.3387H54.6283V58.4067H55.4473V59.1177C55.6093 58.8597 55.8253 58.6617 56.0953 58.5237C56.3713 58.3857 56.6743 58.3167 57.0043 58.3167C57.4183 58.3167 57.7843 58.4097 58.1023 58.5957C58.4203 58.7817 58.6573 59.0547 58.8133 59.4147C58.9513 59.0667 59.1793 58.7967 59.4973 58.6047C59.8153 58.4127 60.1693 58.3167 60.5593 58.3167Z" fill="white"/>
</g>
<defs>
<linearGradient id="paint0_linear_1_3199" x1="50" y1="8.3125" x2="50" y2="92.6875" gradientUnits="userSpaceOnUse">
<stop stop-color="#1A2755"/>
<stop offset="1"/>
</linearGradient>
<clipPath id="clip0_1_3199">
<rect y="0.5" width="100" height="100" rx="25" fill="white"/>
</clipPath>
</defs>
</svg>
