<svg width="70" height="91" viewBox="0 0 70 91" fill="none" xmlns="http://www.w3.org/2000/svg">
<g id="Frame" clip-path="url(#clip0_18_704)">
<path id="Polygon 7" d="M33.5069 3.53003C33.8927 2.8548 34.8627 2.86025 35.2424 3.53892C48.1848 26.6704 63.3335 54.4271 68.2023 62.4238C68.6194 63.1088 68.1171 64 67.3152 64H0.406275C-0.281664 64 -0.6873 63.3592 -0.358365 62.755C3.13665 56.3351 20.0458 27.0896 33.5069 3.53003Z" fill="url(#paint0_linear_18_704)"/>
<path id="Rectangle 3648" d="M0.462928 62.3511C0.553643 60.7543 1.88114 59.5094 3.48051 59.5213L64.9039 59.9803C66.414 59.9915 67.6803 61.1236 67.8601 62.623L68.0852 64.5V66C68.0852 67.6569 66.7421 69 65.0852 69H34.0852H3.26047C1.53674 69 0.16754 67.5508 0.265305 65.8298L0.462928 62.3511Z" fill="url(#paint1_linear_18_704)"/>
<path id="Polygon 8" d="M34.7632 76.5L30 69H39.5263L34.7632 76.5Z" fill="url(#paint2_linear_18_704)"/>
</g>
<defs>
<linearGradient id="paint0_linear_18_704" x1="34.1" y1="2" x2="34.1" y2="64" gradientUnits="userSpaceOnUse">
<stop stop-color="#9A9A9A"/>
<stop offset="1" stop-color="#616161" stop-opacity="0"/>
</linearGradient>
<linearGradient id="paint1_linear_18_704" x1="34" y1="61" x2="34" y2="70.5" gradientUnits="userSpaceOnUse">
<stop stop-color="white" stop-opacity="0"/>
<stop offset="0.734375" stop-color="#353535" stop-opacity="0.963542"/>
<stop offset="1" stop-color="#2D2D2D"/>
</linearGradient>
<linearGradient id="paint2_linear_18_704" x1="35" y1="79.5" x2="34.7631" y2="65" gradientUnits="userSpaceOnUse">
<stop stop-color="#FCFCFC" stop-opacity="0"/>
<stop offset="0.744792"/>
<stop offset="0.833333"/>
</linearGradient>
<clipPath id="clip0_18_704">
<rect width="70" height="90" fill="white" transform="translate(0 0.5)"/>
</clipPath>
</defs>
</svg>
