<svg width="266" height="137" viewBox="0 0 266 137" fill="none" xmlns="http://www.w3.org/2000/svg">
<path d="M100.072 88.5811L101.159 96.0119C101.33 97.1819 102.212 98.1879 103.479 98.6582C104.615 99.0799 104.262 100.527 103.023 100.527L74.3946 100.527C73.156 100.527 72.8032 99.0799 73.939 98.6582C75.2057 98.1879 76.0876 97.1819 76.2588 96.0119L77.3464 88.5811L100.072 88.5811Z" fill="#C5C5EE"/>
<rect x="44.9121" y="88.5811" width="66.5564" height="87.5953" rx="12.5417" transform="rotate(-90 44.9121 88.5811)" fill="#D7D7F7"/>
<mask id="mask0_0_1" style="mask-type:alpha" maskUnits="userSpaceOnUse" x="44" y="22" width="89" height="67">
<rect x="44.7139" y="22.0248" width="87.5953" height="66.5564" rx="11.7579" fill="url(#paint0_linear_0_1)"/>
</mask>
<g mask="url(#mask0_0_1)">
<path d="M44.9126 39.3912C44.9126 31.2051 44.9126 27.112 47.4557 24.5689C49.9988 22.0258 54.0919 22.0258 62.2781 22.0258H115.142C123.329 22.0258 127.422 22.0258 129.965 24.5689C132.508 27.112 132.508 31.2051 132.508 39.3912V78.3427H44.9126V39.3912Z" fill="#E3E4FB"/>
</g>
<rect x="56.0098" y="31.4755" width="64.8047" height="41.0806" rx="4.34136" fill="#F5F5FF"/>
<path d="M107.276 53.6947C107.276 59.4409 102.587 64.0992 96.8043 64.0992C91.0211 64.0992 86.3329 59.4409 86.3329 53.6947C86.3329 47.9485 91.0211 43.2903 96.8043 43.2903C102.587 43.2903 107.276 47.9485 107.276 53.6947ZM90.0819 53.6947C90.0819 57.3837 93.0916 60.3741 96.8043 60.3741C100.517 60.3741 103.527 57.3837 103.527 53.6947C103.527 50.0058 100.517 47.0153 96.8043 47.0153C93.0916 47.0153 90.0819 50.0058 90.0819 53.6947Z" fill="#E6E6FD"/>
<path d="M86.3316 53.6968C86.3316 52.3304 86.6025 50.9775 87.1287 49.7151C87.655 48.4528 88.4263 47.3058 89.3986 46.3397C90.371 45.3736 91.5254 44.6072 92.7958 44.0843C94.0663 43.5614 95.4279 43.2923 96.803 43.2923L96.803 46.9839C95.9158 46.9839 95.0373 47.1576 94.2176 47.4949C93.3979 47.8323 92.6532 48.3267 92.0258 48.9501C91.3985 49.5734 90.9008 50.3134 90.5613 51.1279C90.2218 51.9423 90.047 52.8152 90.047 53.6968L86.3316 53.6968Z" fill="#FDFDFF"/>
<path d="M56.0098 35.8168C56.0098 33.4192 57.9535 31.4755 60.3511 31.4755H73.7788V72.5561H58.5389C57.1421 72.5561 56.0098 71.4238 56.0098 70.027V35.8168Z" fill="#9597BA"/>
<ellipse cx="59.4913" cy="35.0645" rx="0.638756" ry="0.635096" fill="#C3C5DC"/>
<ellipse cx="61.5816" cy="35.0645" rx="0.638756" ry="0.635096" fill="#C3C5DC"/>
<ellipse cx="63.6729" cy="35.0645" rx="0.638756" ry="0.635096" fill="#C3C5DC"/>
<ellipse cx="59.4339" cy="39.7829" rx="1.04524" ry="1.03855" fill="#A8ABD0"/>
<ellipse cx="59.4344" cy="42.7829" rx="1.04524" ry="1.03855" fill="#A8ABD0"/>
<ellipse cx="59.4344" cy="47.2815" rx="1.04524" ry="1.03855" fill="#A8ABD0"/>
<ellipse cx="59.4344" cy="50.2817" rx="1.04524" ry="1.03855" fill="#A8ABD0"/>
<ellipse cx="59.4344" cy="54.6692" rx="1.04524" ry="1.03855" fill="#A8ABD0"/>
<ellipse cx="59.4344" cy="57.6697" rx="1.04524" ry="1.03855" fill="#A8ABD0"/>
<ellipse cx="59.4344" cy="60.6695" rx="1.04524" ry="1.03855" fill="#A8ABD0"/>
<rect x="61.6403" y="39.3226" width="5.22618" height="0.923776" rx="0.461888" fill="#A8ABD0"/>
<rect x="61.6401" y="46.8214" width="3.83253" height="0.923776" rx="0.461888" fill="#A8ABD0"/>
<rect x="61.6401" y="42.3224" width="8.7103" height="0.923776" rx="0.461888" fill="#A8ABD0"/>
<rect x="61.6401" y="49.8214" width="5.57459" height="0.923776" rx="0.461888" fill="#A8ABD0"/>
<rect x="61.6401" y="54.0897" width="8.7103" height="0.923776" rx="0.461888" fill="#A8ABD0"/>
<rect x="61.6401" y="57.0922" width="7.66507" height="0.923776" rx="0.461888" fill="#A8ABD0"/>
<rect x="61.6401" y="60.2065" width="5.57459" height="0.923776" rx="0.461888" fill="#A8ABD0"/>
<rect x="61.6401" y="46.8214" width="3.83253" height="0.923776" rx="0.461888" fill="#A8ABD0"/>
<rect x="61.6401" y="49.8214" width="5.57459" height="0.923776" rx="0.461888" fill="#A8ABD0"/>
<rect x="73.7783" y="36.6671" width="47.0356" height="0.115472" fill="#E7E8EF"/>
<ellipse cx="88.7092" cy="83.4613" rx="2.37815" ry="2.36295" fill="#E4E4FF"/>
<path d="M29.1323 81.6893C32.9554 72.0467 41.968 66.0157 46.8081 65.6505C52.1996 65.4374 61.4042 65.6566 63.0216 71.6468C65.0434 79.1345 61.816 81.366 60.3456 87.3013C58.8752 93.2367 59.8861 95.9313 60.3456 96.7531C60.8051 97.5749 60.0868 100.002 56.7783 100.002C50.3235 100.002 46.13 100.192 39.834 100.002C25.5651 102.956 24.3535 93.7426 29.1323 81.6893Z" fill="#EF8001"/>
<path d="M35.1884 124.222C44.2935 120.087 29.7266 103.941 29.7271 97.9344C29.7278 89.8117 31.3241 85.8238 31.3241 85.8238" stroke="#EF8001" stroke-width="5.07521" stroke-linecap="round"/>
<path d="M67.1586 68.7059C65.7505 72.4099 61.4243 76.4939 53.2746 74.2189C48.0565 72.258 45.1883 63.6983 46.4326 60.425C47.9389 56.4626 55.1949 53.4796 60.4129 55.4405C65.6309 57.4014 68.2565 63.2118 67.1586 68.7059Z" fill="#EF8001"/>
<g opacity="0.4">
<mask id="mask1_0_1" style="mask-type:alpha" maskUnits="userSpaceOnUse" x="60" y="53" width="19" height="16">
<ellipse cx="69.0278" cy="60.9636" rx="8.97945" ry="7.62945" fill="#FFB45F"/>
</mask>
<g mask="url(#mask1_0_1)">
<path d="M67.158 68.7C65.7492 72.4037 61.4216 76.4879 53.2711 74.2145C48.0526 72.2547 45.1854 63.6968 46.4304 60.4237C47.9376 56.4617 55.1952 53.4779 60.4136 55.4377C65.6321 57.3974 68.257 63.2066 67.158 68.7Z" fill="#FFB45F"/>
</g>
</g>
<path d="M55.7073 65.8466C55.6177 66.0822 56.2149 66.7685 56.2149 66.7685C56.2149 66.7685 57.1197 66.6462 57.2093 66.4106C57.2989 66.175 57.0354 65.8577 56.6206 65.702C56.2058 65.5462 55.797 65.6109 55.7073 65.8466Z" fill="#2F3040"/>
<path d="M50.4178 57.998C51.0996 58.3231 52.1506 58.3907 52.5908 58.3839C55.3354 57.796 55.804 56.6525 55.84 55.9051C53.5343 51.378 52.2917 51.8205 51.6395 52.3629C50.7489 53.1035 49.5657 57.5916 50.4178 57.998Z" fill="#FFB45F"/>
<path d="M66.8066 65.0083C66.0789 64.8039 65.2457 64.1637 64.92 63.8692C63.2528 61.6239 63.6623 60.4581 64.1326 59.874C68.8746 57.9944 69.5121 59.1432 69.6403 59.9788C69.8154 61.1197 67.7161 65.2637 66.8066 65.0083Z" fill="#FFB45F"/>
<path d="M52.0921 58.5688C51.5288 58.3571 51.4227 52.9028 52.6758 52.7338C53.9288 52.5648 56.8575 56.7171 56.4867 57.5622C54.5859 58.784 54.6611 59.5342 52.0921 58.5688Z" fill="#EF8001"/>
<path d="M65.1727 64.3333C65.736 64.5449 69.4452 60.5239 68.6179 59.5733C67.7906 58.6228 62.8308 59.8117 62.5465 60.6893C63.1591 62.8553 62.6035 63.3685 65.1727 64.3333Z" fill="#F59527"/>
<path d="M58.062 88.6742C56.9908 99.5199 52.8959 99.6223 48.7794 99.6028C39.4708 99.5586 39.5018 93.8698 42.4722 85.8545C44.7752 79.6421 49.6642 76.3238 53.9692 77.1025C58.2742 77.8811 58.0296 82.2939 58.062 88.6742Z" fill="#F59527"/>
<path d="M45.7789 85.5278C43.4011 82.2794 37.385 83.6961 33.8875 84.9383C31.7649 86.5301 26.9175 98.9199 37.6883 98.0732C46.9676 97.3437 48.4012 89.1104 45.7789 85.5278Z" fill="#EF8001"/>
<path d="M54.7992 96.7526L56.2855 81.9842L56.7782 77.849L61.3395 80.8027C60.4476 84.4456 58.2649 94.3896 59.4539 94.3896C61.3397 94.3896 62.4266 99.7063 57.7719 99.7063C55.5894 99.7063 54.5019 97.5402 54.7992 96.7526Z" fill="#EF8001"/>
<path d="M56.499 63.0511C56.6425 63.1304 56.696 63.3142 56.5827 63.433C56.5441 63.4734 56.5025 63.5112 56.4583 63.546C56.3359 63.6424 56.1957 63.7138 56.0455 63.7563C55.8953 63.7988 55.7382 63.8115 55.583 63.7937C55.4279 63.7758 55.2779 63.7278 55.1414 63.6523C55.005 63.5769 54.8849 63.4754 54.7879 63.3538C54.6909 63.2322 54.619 63.0928 54.5762 62.9436C54.5334 62.7944 54.5207 62.6383 54.5386 62.4841C54.5451 62.4285 54.5556 62.3735 54.5698 62.3196C54.6117 62.1613 54.7972 62.1097 54.9406 62.189L54.997 62.2202C55.1093 62.2823 55.1441 62.4249 55.1292 62.5521C55.1202 62.6291 55.1266 62.7072 55.148 62.7818C55.1694 62.8564 55.2054 62.9261 55.2538 62.9869C55.3023 63.0477 55.3624 63.0984 55.4306 63.1362C55.4988 63.1739 55.5739 63.1979 55.6514 63.2069C55.729 63.2158 55.8076 63.2094 55.8826 63.1882C55.9577 63.1669 56.0279 63.1312 56.0891 63.083C56.1901 63.0035 56.3303 62.9577 56.4426 63.0199L56.499 63.0511Z" fill="#2F3040"/>
<path d="M61.2558 66.0048C61.3993 66.0841 61.4528 66.268 61.3395 66.3867C61.3009 66.4272 61.2593 66.465 61.2152 66.4998C61.0928 66.5961 60.9525 66.6676 60.8023 66.7101C60.6521 66.7526 60.495 66.7653 60.3399 66.7474C60.1848 66.7296 60.0347 66.6815 59.8983 66.6061C59.7618 66.5306 59.6417 66.4292 59.5447 66.3076C59.4477 66.186 59.3758 66.0466 59.333 65.8973C59.2903 65.7481 59.2775 65.592 59.2955 65.4379C59.302 65.3822 59.3124 65.3272 59.3267 65.2733C59.3686 65.115 59.554 65.0634 59.6975 65.1428L59.7539 65.1739C59.8662 65.2361 59.9009 65.3786 59.8861 65.5058C59.8771 65.5829 59.8835 65.6609 59.9048 65.7356C59.9262 65.8102 59.9622 65.8799 60.0107 65.9407C60.0592 66.0015 60.1192 66.0522 60.1875 66.0899C60.2557 66.1277 60.3307 66.1517 60.4083 66.1606C60.4858 66.1695 60.5644 66.1632 60.6395 66.1419C60.7146 66.1207 60.7847 66.0849 60.8459 66.0368C60.9469 65.9572 61.0872 65.9115 61.1995 65.9736L61.2558 66.0048Z" fill="#2F3040"/>
<path d="M45.3384 65.7371L46.6113 65.4543C50.9292 73.8162 59.1833 73.9968 63.718 73.1394C58.1478 77.3962 46.3441 71.9222 45.3384 65.7371Z" fill="#93D374"/>
<ellipse cx="2.51739" cy="2.50148" rx="2.51739" ry="2.50148" transform="matrix(-0.997137 -0.0756203 -0.0765908 0.997063 58.2656 73.1543)" fill="#FC9700"/>
<ellipse cx="2.26875" cy="2.25442" rx="2.26875" ry="2.25442" transform="matrix(-0.997137 -0.0756203 -0.0765908 0.997063 58.0151 73.1326)" fill="#FCCD00"/>
<path d="M53.642 67.8432C56.5393 67.0302 58.7121 67.8405 59.4367 68.8605C59.5573 69.7917 59.0745 70.8928 56.5393 71.6549C55.1668 72.0675 52.9179 73.9412 51.469 75.4654C50.2635 76.7335 48.1189 79.4257 47.4852 80.038C43.6975 83.6982 37.4034 82.2707 36.5352 80.038C35.4487 77.2436 31.9528 77.2367 37.6817 71.6549C40.5207 68.8888 41.9786 70.5385 44.2706 71.6549C45.8673 72.4325 50.7447 68.6561 53.642 67.8432Z" fill="url(#paint1_linear_0_1)"/>
<path d="M176.697 99.9705H240.316L219.09 136.922H155.471L176.697 99.9705Z" fill="#C5C5EE"/>
<rect y="99.4106" width="265.164" height="5.31664" rx="2.65832" fill="#E3E4FB"/>
<path d="M177.172 104.727H213.904L214.628 110.26L177.172 112.997V104.727Z" fill="white"/>
<path d="M146.316 116.41L176.777 108.272H199.06L159.138 136.922H141.203L139.914 135.242C134.725 128.477 138.08 118.611 146.316 116.41Z" fill="#2F3152"/>
<path d="M216.362 125.764C217.923 119.156 216.441 113.973 214.146 108.272H181.623L154.663 117.371C147.342 119.842 144.251 128.504 148.354 135.052L149.526 136.922L170.356 137H194.988C207.669 137 214.31 134.452 216.362 125.764Z" fill="#494B6D"/>
<path d="M176.253 16.0926L203.198 11.3305L217.408 41.3553C218.61 43.8955 216.758 46.8222 213.947 46.8222H180.081C177.967 46.8222 176.252 45.1079 176.252 42.9932L176.253 16.0926Z" fill="#2F3040"/>
<path d="M205.753 21.8526C205.753 33.2501 198.573 44.0297 190.551 44.0297C182.53 44.0297 175.049 33.2501 175.049 21.8526C175.049 10.4551 182.53 2.75568 190.551 2.75568C198.573 2.75568 205.753 10.4551 205.753 21.8526Z" fill="#2F3040"/>
<rect x="187.747" y="29.7445" width="11.0266" height="15.3624" fill="#FACEB7"/>
<mask id="mask2_0_1" style="mask-type:alpha" maskUnits="userSpaceOnUse" x="187" y="29" width="12" height="17">
<rect x="187.747" y="29.7445" width="11.0266" height="15.3624" fill="#FFD6BC"/>
</mask>
<g mask="url(#mask2_0_1)">
<path d="M207.121 23.3053C207.121 32.1185 201.404 40.454 195.016 40.454C188.628 40.454 182.671 32.1185 182.671 23.3053C182.671 14.4921 188.628 8.53839 195.016 8.53839C201.404 8.53839 207.121 14.4921 207.121 23.3053Z" fill="#F3BFA2"/>
</g>
<path d="M202.075 22.1234C202.075 30.9366 193.277 39.2911 186.889 39.2911C180.501 39.2911 177.625 30.9366 177.625 22.1234C177.625 13.3101 183.582 7.35648 189.97 7.35648C196.358 7.35648 202.075 13.3101 202.075 22.1234Z" fill="url(#paint2_linear_0_1)"/>
<path d="M188.961 30.8852L182.523 31.3969C182.652 32.2071 183.682 33.8275 185.742 33.8275C187.416 33.8275 188.789 31.9939 188.961 30.8852Z" fill="white"/>
<path d="M176.352 16.7168L180.081 8.0811C180.65 6.76394 182.096 6.05052 183.493 6.39765C185.64 6.93124 186.437 9.54897 184.95 11.1828L178.609 18.1453C177.582 19.2733 175.757 18.1181 176.352 16.7168Z" fill="#2F3040"/>
<path d="M204.735 21.1794C205.391 19.5673 205.041 17.723 203.838 16.4593L193.624 5.72671C192.403 4.44314 190.554 3.9594 188.855 4.4787C185.492 5.50662 184.436 9.72006 186.922 12.1954L197.422 22.6516C199.687 24.9067 203.533 24.1324 204.735 21.1794Z" fill="#2F3040"/>
<rect width="3.83473" height="6.79309" rx="1.91737" transform="matrix(0.987728 0.156183 -0.158149 0.987415 198.785 22.0229)" fill="#FFD1B4"/>
<path d="M194.043 62.7849H250.832C254.89 62.7849 257.475 67.1183 255.549 70.6889L240.052 99.4106H173.605L194.043 62.7849Z" fill="#D7D7F6"/>
<path d="M169.462 65.519C170.064 53.1567 186.118 47.8728 192.138 44.9816L181.503 76.2475L179.025 94.9414C178.663 97.6732 176.333 99.7144 173.577 99.7144H136.652V95.8263L167.349 91.606C168.082 91.5053 168.689 90.9763 168.809 90.2463C169.554 85.7035 168.859 77.9002 169.462 65.519Z" fill="#FFCDB3"/>
<mask id="mask3_0_1" style="mask-type:alpha" maskUnits="userSpaceOnUse" x="136" y="44" width="57" height="56">
<path d="M169.462 65.519C170.064 53.1567 186.118 47.8728 192.138 44.9816L181.503 76.2475L179.025 94.9414C178.663 97.6732 176.333 99.7144 173.577 99.7144H136.652V95.8263L167.349 91.606C168.082 91.5053 168.689 90.9763 168.809 90.2463C169.554 85.7035 168.859 77.9002 169.462 65.519Z" fill="#FFD6BC"/>
</mask>
<g mask="url(#mask3_0_1)">
<path d="M162.119 41.2311L199.632 43.6133L196.012 74.5463L157.658 69.1564L162.119 41.2311Z" fill="#FF7E65"/>
</g>
<path d="M202.903 44.4796C202.779 44.455 202.629 44.0017 202.46 43.3709C201.841 41.0658 199.733 39.874 197.398 40.3662L187.613 42.4283C185.91 42.7872 184.788 44.4186 185.063 46.1371L176.019 56.0142L173.798 62.4354C173.049 64.6 172.818 66.91 173.123 69.1801L177.196 99.4499H212.554C212.554 90.4321 212.339 77.0519 215.093 73.292L217.872 76.6551L228.564 70.5842L222.561 55.4972C220.952 51.4535 217.63 48.3255 213.433 47.1759C208.277 45.7639 203.152 44.5293 202.903 44.4796Z" fill="url(#paint3_linear_0_1)"/>
<path d="M236.284 91.5697L228.564 70.5862L217.566 76.3535L222.079 86.1627C222.25 86.5355 221.968 86.9579 221.558 86.9414L199.847 86.0669L200.153 93.0483L231.314 97.6804C234.753 98.1917 237.485 94.8333 236.284 91.5697Z" fill="#FFD6BC"/>
<rect x="140.905" y="96.0325" width="49.9912" height="3.66703" rx="1.53121" fill="#EEEEFF"/>
<path d="M103.068 69.76C102.126 67.6088 103.702 65.1987 106.051 65.1987H147.959C150.762 65.1987 153.299 66.8578 154.422 69.4253L167.671 99.7021H116.17L103.068 69.76Z" fill="white"/>
<ellipse cx="4.26463" cy="4.04031" rx="4.26463" ry="4.04031" transform="matrix(0.999672 -0.0255914 0.0259215 0.999664 127.231 80.1102)" fill="#F5F5FF"/>
<rect x="0.823193" y="0.849491" width="5.04781" height="7.43321" rx="1.9519" transform="matrix(0.999878 0.0156191 -0.0158207 0.999875 182.957 80.4158)" stroke="#E0E0EE" stroke-width="1.67306"/>
<rect width="12.2198" height="14.8775" rx="1.11537" transform="matrix(0.999878 0.0156295 -0.0158101 0.999875 174.436 77.5529)" fill="#E4E4FF"/>
<path d="M196.519 84.7097C196.953 85.2241 200.048 85.822 203.035 86.1187L203.035 93.2076C199.762 92.9227 191.081 91.9809 189.322 91.5299C188.51 91.3216 187.37 89.8707 187.746 89.0098C187.025 88.8812 186.428 87.3975 187.025 86.804C186.185 86.1351 186.08 84.9696 186.727 84.4302C185.233 83.8367 185.694 81.6823 185.991 81.7082L191.941 82.2261C194.916 82.4851 195.976 84.0667 196.519 84.7097Z" fill="#FFD6BC"/>
<rect x="21.4033" y="104.137" width="4.75631" height="32.4906" fill="#E3E4FB"/>
<rect x="233.059" y="104.137" width="4.75631" height="32.4906" fill="#E3E4FB"/>
<rect x="25.5645" y="104.727" width="207.494" height="10.0425" fill="#D6D7F4"/>
<defs>
<linearGradient id="paint0_linear_0_1" x1="137.444" y1="44.8857" x2="112.455" y2="0.640306" gradientUnits="userSpaceOnUse">
<stop stop-color="#D6DBEC"/>
<stop offset="1" stop-color="#F3F7FA"/>
</linearGradient>
<linearGradient id="paint1_linear_0_1" x1="59.4529" y1="71.1391" x2="32.9142" y2="78.7548" gradientUnits="userSpaceOnUse">
<stop stop-color="#E46E00"/>
<stop offset="1" stop-color="#EF8001"/>
</linearGradient>
<linearGradient id="paint2_linear_0_1" x1="177.767" y1="21.728" x2="195.591" y2="25.9138" gradientUnits="userSpaceOnUse">
<stop stop-color="#FFE9D9"/>
<stop offset="1" stop-color="#FFD0B4"/>
</linearGradient>
<linearGradient id="paint3_linear_0_1" x1="184.638" y1="45.9592" x2="219.631" y2="92.8993" gradientUnits="userSpaceOnUse">
<stop stop-color="#FF8267"/>
<stop offset="1" stop-color="#FF6158"/>
</linearGradient>
</defs>
</svg>
