<svg width="111" height="92" viewBox="0 0 111 92" fill="none" xmlns="http://www.w3.org/2000/svg">
<g id="zoom">
<g id="zoom_2">
<rect id="Rectangle 3637" x="0.558637" y="0.743146" width="109.698" height="90.5464" rx="8.47617" fill="#F3F3FF" stroke="#E0E0FE" stroke-width="0.513708"/>
<ellipse id="Ellipse 3574" cx="8.41282" cy="6.31312" rx="1.40702" ry="1.39802" fill="#E8E8FF"/>
<ellipse id="Ellipse 3575" cx="12.9138" cy="6.31312" rx="1.40702" ry="1.39802" fill="#E8E8FF"/>
<ellipse id="Ellipse 3576" cx="17.4172" cy="6.31312" rx="1.40702" ry="1.39802" fill="#E8E8FF"/>
<ellipse id="Ellipse 3577" cx="55.4067" cy="84.8822" rx="2.81403" ry="2.79605" fill="#E6E6FF"/>
<ellipse id="Ellipse 3579" cx="66.6632" cy="84.8822" rx="2.81403" ry="2.79605" fill="#FFEBE0"/>
<ellipse id="Ellipse 3578" cx="44.1504" cy="84.8822" rx="2.81403" ry="2.79605" fill="#E6E6FF"/>
<rect id="Rectangle 3639" x="0.814392" y="10.5071" width="54.5923" height="34.1118" fill="#EAFAEA"/>
<rect id="Rectangle 3640" x="55.4062" y="10.5071" width="54.5923" height="34.1118" fill="#EDF2FF"/>
<rect id="Rectangle 3641" x="0.814392" y="44.6187" width="54.5923" height="34.1118" fill="#FDFAE1"/>
<rect id="Rectangle 3642" x="55.4062" y="44.6187" width="54.5923" height="34.1118" fill="#FEF4F4"/>
</g>
<g id="Group 1327225178">
<g id="Group 1327225171" opacity="0.8">
<rect id="Rectangle 3643" x="26.704" y="32.8731" width="5.06526" height="4.47367" fill="#F0BBA2"/>
<g id="Group 1327224896">
<ellipse id="Ellipse 3467" cx="22.4541" cy="28.1708" rx="4.14409" ry="4.1176" fill="#758198"/>
<ellipse id="Ellipse 3468" cx="35.6539" cy="28.4744" rx="4.14409" ry="4.1176" fill="#8E99A8"/>
<path id="Rectangle 3486" d="M21.3795 22.7306C21.3795 18.4074 24.884 14.9028 29.2072 14.9028C33.5303 14.9028 37.0349 18.4074 37.0349 22.7305L37.0349 24.1555C37.0349 28.4786 33.5303 31.9832 29.2072 31.9832C24.884 31.9832 21.3795 28.4786 21.3795 24.1555L21.3795 22.7306Z" fill="#646D80"/>
<path id="Rectangle 3485" d="M21.3794 25.6283C21.3794 21.3899 24.8153 17.954 29.0536 17.954C33.292 17.954 36.7279 21.3899 36.7279 25.6282L36.7279 27.3602C36.7279 31.5985 33.292 35.0344 29.0536 35.0344C24.8153 35.0344 21.3794 31.5985 21.3794 27.3602L21.3794 25.6283Z" fill="#FFD2BB"/>
<path id="Intersect" d="M30.1934 17.7923C30.6464 20.9218 23.6941 23.9867 21.1399 25.5729C20.8331 23.5905 20.6764 16.5713 27.7404 15.5061C29.7334 15.3522 30.0482 16.7948 30.1934 17.7923Z" fill="#646D80"/>
<path id="Intersect_2" d="M28.3706 17.59C28.1505 21.6033 34.8552 24.855 37.2526 26.3438C38.9288 23.8453 36.5048 14.8455 30.3365 15.3225C28.8308 15.6077 28.4067 16.9323 28.3706 17.59Z" fill="#707B89"/>
</g>
<g id="Group 1327225001">
<path id="Ellipse 3469" d="M31.2052 29.7839C31.2051 30.3065 30.9961 30.8077 30.6241 31.1773C30.2522 31.5469 29.7477 31.7546 29.2218 31.7547C28.6958 31.7547 28.1914 31.5472 27.8196 31.1777C27.4477 30.8083 27.2389 30.3071 27.2389 29.7845L29.2221 29.7842L31.2052 29.7839Z" fill="white"/>
</g>
<path id="Rectangle 3644" d="M15.4477 44.6168C15.4477 40.6018 18.7025 37.3471 22.7174 37.3471H35.7555C39.7705 37.3471 43.0252 40.6018 43.0252 44.6168H15.4477Z" fill="#D5E9B5"/>
</g>
</g>
<g id="Group 1327225176">
<g id="Group 1327224867" opacity="0.8">
<g id="Rectangle 3470">
<path d="M80.0021 64.3845L88.3467 64.4691L88.3467 71.2667L80.0021 71.1821L80.0021 64.3845Z" fill="#F2C4AC"/>
<path d="M80.0021 64.3845L88.3467 64.4691L88.3467 71.2667L80.0021 71.1821L80.0021 64.3845Z" fill="url(#paint0_linear_1_3978)" fill-opacity="0.7"/>
</g>
<path id="Vector 682" d="M90.4847 62.8172C88.868 66.352 87.7244 66.4713 87.3004 65.6202L84.4885 56.5141L76.9493 54.651L76.0161 50.9246C75.6908 49.6258 76.6459 48.3958 77.9747 48.5522C80.3356 48.83 83.3335 49.4135 87.2998 49.7449C89.6501 49.9412 91.7887 50.2522 91.8606 53.0213C93.4622 54.3757 92.6411 58.1023 90.4847 62.8172Z" fill="#798D9D"/>
<path id="Vector 681" d="M76.393 66.4855C75.2222 64.8339 75.831 57.1076 76.3899 54.0412C77.308 54.1157 81.4032 54.6269 84.1283 54.9352C85.332 55.0714 86.3475 55.9816 86.6404 57.1567C87.2638 59.6577 88.3147 63.6297 88.6679 65.6215C88.0107 66.1902 85.8222 67.5673 82.326 68.5264C77.9816 69.4162 76.8614 67.1463 76.393 66.4855Z" fill="#FFCFB6"/>
<rect id="Rectangle 3302" width="3.41384" height="4.28447" rx="1.61953" transform="matrix(0.975041 0.221432 -0.224207 0.974678 86.4718 59.0569)" fill="#F9CBB4"/>
<path id="Rectangle 3471" d="M75.1497 51.267C75.2532 49.1819 77.0986 47.6238 79.1716 47.8714L88.876 49.0302C90.6809 49.2457 92.009 50.8301 91.906 52.6448C91.7967 54.5712 90.1229 56.0257 88.2001 55.8651L78.4615 55.0514C76.5194 54.8892 75.0532 53.2137 75.1497 51.267Z" fill="#6C8598"/>
<path id="Ellipse 3466" d="M80.9108 63.9796C80.8624 64.4222 80.6391 64.8275 80.29 65.1065C79.9408 65.3855 79.4945 65.5153 79.049 65.4673C78.6036 65.4192 78.1956 65.1974 77.9148 64.8505C77.634 64.5035 77.5034 64.06 77.5518 63.6174L79.2313 63.7985L80.9108 63.9796Z" fill="white"/>
</g>
<path id="Rectangle 3645" d="M68.3516 78.7301C68.3516 74.4063 71.8567 70.9012 76.1805 70.9012H90.3514C94.6752 70.9012 98.1803 74.4063 98.1803 78.7301H68.3516Z" fill="#FBDBDB"/>
</g>
<g id="Group 1327225175">
<ellipse id="Ellipse 3585" cx="73.6553" cy="24.6317" rx="1.51124" ry="1.8019" fill="#FDD9C6"/>
<ellipse id="Ellipse 3586" cx="90.5811" cy="24.6317" rx="1.51124" ry="1.8019" fill="#FDD9C6"/>
<path id="Rectangle 3487" d="M73.958 22.6651C73.958 18.1128 77.6484 14.4224 82.2007 14.4224C86.753 14.4224 90.4434 18.1128 90.4434 22.6651L90.4434 24.5253C90.4434 29.0777 86.753 32.768 82.2007 32.768C77.6484 32.768 73.958 29.0777 73.958 24.5253L73.958 22.6651Z" fill="#FFD2BB"/>
<g id="Group 1327225174">
<mask id="mask0_1_3978" style="mask-type:alpha" maskUnits="userSpaceOnUse" x="73" y="14" width="18" height="19">
<path id="Rectangle 3488" d="M73.958 22.6651C73.958 18.1128 77.6484 14.4224 82.2007 14.4224C86.753 14.4224 90.4434 18.1128 90.4434 22.6651L90.4434 24.5253C90.4434 29.0777 86.753 32.768 82.2007 32.768C77.6484 32.768 73.958 29.0777 73.958 24.5253L73.958 22.6651Z" fill="#FFD2BB"/>
</mask>
<g mask="url(#mask0_1_3978)">
<ellipse id="Ellipse 3581" cx="82.1187" cy="14.7231" rx="3.92923" ry="2.10221" fill="white"/>
<ellipse id="Ellipse 3582" cx="2.9184" cy="2.11552" rx="2.9184" ry="2.11552" transform="matrix(0.127605 -0.991825 0.99203 0.126005 70.936 26.2165)" fill="white"/>
<ellipse id="Ellipse 3584" cx="2.9184" cy="2.11552" rx="2.9184" ry="2.11552" transform="matrix(-0.127605 -0.991825 -0.99203 0.126005 94.0122 26.2165)" fill="white"/>
</g>
</g>
<path id="Rectangle 3646" d="M66.0996 44.6193C66.0996 39.369 70.3558 35.1128 75.6062 35.1128H89.2359C94.4862 35.1128 98.7424 39.369 98.7424 44.6193H66.0996Z" fill="#D8E3FF"/>
<path id="Vector 870" d="M76.0737 34.544C74.6009 32.9475 73.353 26.4349 73.9578 24.6333C74.8644 24.0327 75.1662 27.9368 77.5846 27.9368C79.0955 27.9368 80.4937 25.5342 82.7228 25.5342C84.9519 25.5342 87.2565 29.4383 88.4655 27.0358C89.6745 24.6333 89.6749 24.4331 90.2794 24.333C90.5816 25.8346 90.7856 32.5307 87.2565 35.745C83.6298 39.0482 79.3981 38.1475 76.0737 34.544Z" fill="white"/>
<path id="Vector 872" d="M81.2119 29.4375C81.7157 30.0385 83.0254 30.88 84.2344 29.4375" stroke="#AFB7C7" stroke-width="0.55176" stroke-linecap="round"/>
</g>
<g id="Group 1327225177" opacity="0.8">
<ellipse id="Ellipse 3399" cx="24.8345" cy="52.8266" rx="5.44683" ry="5.41201" fill="#F2A660"/>
<g id="Group 1327224466">
<path id="Subtract" fill-rule="evenodd" clip-rule="evenodd" d="M28.9891 67.713C25.6892 67.2091 23.158 65.3757 23.158 60.3213C23.158 54.1259 27.0608 49.9407 31.4209 49.9407C35.7811 49.9407 39.8475 54.1259 39.8475 60.3213C39.8475 65.3757 37.0746 67.2091 33.6856 67.713H28.9891Z" fill="#F2A660"/>
<g id="Group 1327224462">
<rect id="Rectangle 3298" width="5.99376" height="8.35057" transform="matrix(-1 0 0 1 32.9398 64.6112)" fill="#F9C2A5"/>
</g>
<path id="Ellipse 3272" d="M25.1545 60.4272C25.1545 65.5414 29.8915 69.946 33.5981 69.946C37.3048 69.946 39.3426 65.5414 39.3426 60.4272C39.3426 55.313 35.8857 51.8582 32.179 51.8582C28.4723 51.8582 25.1545 55.313 25.1545 60.4272Z" fill="#FED7C2"/>
<path id="Rectangle 3301" d="M39.2376 57.9511C39.2836 56.8378 38.9262 55.7456 38.2304 54.8729L36.0401 52.126C35.5838 51.5537 34.8037 51.3467 34.1202 51.6167C32.8375 52.1232 32.6924 53.8703 33.8744 54.5758L36.848 56.3505C36.8678 56.3623 36.8871 56.3742 36.9067 56.3864C37.077 56.4932 37.9522 57.0432 38.3235 57.3062C38.7358 57.5982 39.2095 58.6312 39.2095 58.6312L39.2376 57.9511Z" fill="#F2A660"/>
<path id="Rectangle 3304" d="M23.709 59.9545C23.3524 59.0782 23.5429 58.0756 24.1966 57.3887L29.7485 51.5548C30.4125 50.8571 31.4174 50.5941 32.341 50.8764C34.1692 51.4351 34.7429 53.7254 33.3917 55.071L27.6841 60.7547C26.4531 61.9805 24.3623 61.5596 23.709 59.9545Z" fill="#F2A660"/>
<rect id="Rectangle 3302_2" width="2.08447" height="3.69255" rx="1.04223" transform="matrix(-0.987728 0.156183 0.15815 0.987415 26.9407 60.4146)" fill="#FEDECE"/>
</g>
<path id="Rectangle 3377" d="M25.3173 73.8331C25.3173 73.097 25.914 72.5004 26.65 72.5004H33.2047C33.9407 72.5004 34.5374 73.097 34.5374 73.8331V74.0597H25.3173V73.8331Z" fill="white"/>
</g>
<path id="Rectangle 3647" d="M16.8544 78.7306C16.8544 74.3408 20.5652 70.8652 24.9456 71.1521L35.6632 71.8543C39.7858 72.1244 43.3483 74.8312 44.7134 78.7306H16.8544Z" fill="#EDE7B0"/>
</g>
<defs>
<linearGradient id="paint0_linear_1_3978" x1="83.4981" y1="67.6509" x2="83.4794" y2="69.4969" gradientUnits="userSpaceOnUse">
<stop stop-color="#E0A282"/>
<stop offset="1" stop-color="#E1A585" stop-opacity="0"/>
</linearGradient>
</defs>
</svg>
